<svg width="1460" height="710" viewBox="0 0 1460 710" fill="none" xmlns="http://www.w3.org/2000/svg" role="img" aria-labelledby="title desc">
  <title id="title">PersistBench architecture diagram</title>
  <desc id="desc">Pastel research-paper architecture figure showing input, trace generation, replay orchestration, evaluation, forgetting validation, and output components for PersistBench.</desc>
  <defs>
    <linearGradient id="bg" x1="80" y1="60" x2="1380" y2="650" gradientUnits="userSpaceOnUse">
      <stop offset="0" stop-color="#f8fafc"/>
      <stop offset="1" stop-color="#eef2ff"/>
    </linearGradient>
    <radialGradient id="glowA" cx="0" cy="0" r="1" gradientUnits="userSpaceOnUse" gradientTransform="translate(320 160) rotate(28) scale(300 220)">
      <stop offset="0" stop-color="#ffffff" stop-opacity="0.9"/>
      <stop offset="1" stop-color="#ffffff" stop-opacity="0"/>
    </radialGradient>
    <radialGradient id="glowB" cx="0" cy="0" r="1" gradientUnits="userSpaceOnUse" gradientTransform="translate(1100 190) rotate(18) scale(320 220)">
      <stop offset="0" stop-color="#ddd6fe" stop-opacity="0.38"/>
      <stop offset="1" stop-color="#ddd6fe" stop-opacity="0"/>
    </radialGradient>
    <radialGradient id="glowC" cx="0" cy="0" r="1" gradientUnits="userSpaceOnUse" gradientTransform="translate(720 610) rotate(90) scale(130 340)">
      <stop offset="0" stop-color="#dbeafe" stop-opacity="0.31"/>
      <stop offset="1" stop-color="#dbeafe" stop-opacity="0"/>
    </radialGradient>

    <linearGradient id="inputPanel" x1="0" y1="0" x2="1" y2="1">
      <stop offset="0" stop-color="#fff2bf"/>
      <stop offset="1" stop-color="#f9df79"/>
    </linearGradient>
    <linearGradient id="tracePanel" x1="0" y1="0" x2="1" y2="1">
      <stop offset="0" stop-color="#ffe1e5"/>
      <stop offset="1" stop-color="#f8c5cf"/>
    </linearGradient>
    <linearGradient id="replayPanel" x1="0" y1="0" x2="1" y2="1">
      <stop offset="0" stop-color="#d7e8ff"/>
      <stop offset="1" stop-color="#b8d4fb"/>
    </linearGradient>
    <linearGradient id="evalPanel" x1="0" y1="0" x2="1" y2="1">
      <stop offset="0" stop-color="#d9fae6"/>
      <stop offset="1" stop-color="#b2f2cb"/>
    </linearGradient>
    <linearGradient id="outputPanel" x1="0" y1="0" x2="1" y2="1">
      <stop offset="0" stop-color="#eee9ff"/>
      <stop offset="1" stop-color="#d8cffd"/>
    </linearGradient>
    <linearGradient id="duckdbCard" x1="0" y1="0" x2="1" y2="1">
      <stop offset="0" stop-color="#faf7ff"/>
      <stop offset="1" stop-color="#efe6ff"/>
    </linearGradient>

    <filter id="panelShadow" x="-20%" y="-20%" width="140%" height="180%">
      <feDropShadow dx="0" dy="10" stdDeviation="16" flood-color="#94a3b8" flood-opacity="0.14"/>
    </filter>
    <filter id="cardShadow" x="-20%" y="-20%" width="140%" height="180%">
      <feDropShadow dx="0" dy="5" stdDeviation="7" flood-color="#94a3b8" flood-opacity="0.10"/>
      <feDropShadow dx="0" dy="12" stdDeviation="18" flood-color="#cbd5e1" flood-opacity="0.07"/>
    </filter>
    <filter id="focusShadow" x="-20%" y="-20%" width="140%" height="190%">
      <feDropShadow dx="0" dy="8" stdDeviation="10" flood-color="#7aa2d8" flood-opacity="0.16"/>
      <feDropShadow dx="0" dy="18" stdDeviation="24" flood-color="#cbd5e1" flood-opacity="0.08"/>
    </filter>
    <filter id="accentShadow" x="-20%" y="-20%" width="140%" height="190%">
      <feDropShadow dx="0" dy="6" stdDeviation="8" flood-color="#94a3b8" flood-opacity="0.12"/>
      <feDropShadow dx="0" dy="14" stdDeviation="18" flood-color="#d8dee9" flood-opacity="0.08"/>
    </filter>
    <marker id="arrow" viewBox="0 0 10 10" refX="8.3" refY="5" markerWidth="6.2" markerHeight="6.2" orient="auto-start-reverse">
      <path d="M0 0L10 5L0 10V0Z" fill="#64748b"/>
    </marker>
    <style>
      .title { font: 700 34px 'Inter', 'IBM Plex Sans', 'Segoe UI', sans-serif; fill: #0f172a; letter-spacing: -0.025em; }
      .subtitle { font: 450 15px 'Inter', 'IBM Plex Sans', 'Segoe UI', sans-serif; fill: #54647a; letter-spacing: 0.01em; }
      .section { font: 650 19px 'Inter', 'IBM Plex Sans', 'Segoe UI', sans-serif; fill: #0f172a; letter-spacing: -0.02em; }
      .sectionMeta { font: 600 10px 'Inter', 'IBM Plex Sans', 'Segoe UI', sans-serif; fill: #4f617a; letter-spacing: 0.16em; text-transform: uppercase; }
      .nodeTitle { font: 650 16px 'Inter', 'IBM Plex Sans', 'Segoe UI', sans-serif; fill: #0f172a; letter-spacing: -0.015em; }
      .nodeMeta { font: 500 12px 'Inter', 'IBM Plex Sans', 'Segoe UI', sans-serif; fill: #415166; }
      .smallMeta { font: 500 11px 'Inter', 'IBM Plex Sans', 'Segoe UI', sans-serif; fill: #5b6b81; }
      .chip { font: 600 10px 'Inter', 'IBM Plex Sans', 'Segoe UI', sans-serif; fill: #334155; letter-spacing: 0.08em; text-transform: uppercase; }
      .connector { stroke: #64748b; stroke-width: 1.85; fill: none; stroke-linecap: round; stroke-linejoin: round; marker-end: url(#arrow); opacity: 0.78; }
      .connectorSoft { stroke: #64748b; stroke-width: 1.55; fill: none; stroke-linecap: round; stroke-linejoin: round; marker-end: url(#arrow); opacity: 0.54; }
      .mutedLine { stroke: #ffffff; stroke-opacity: 0.85; stroke-width: 1.35; }
    </style>
  </defs>

  <rect width="1460" height="710" rx="28" fill="url(#bg)"/>
  <ellipse cx="320" cy="160" rx="300" ry="220" fill="url(#glowA)"/>
  <ellipse cx="1100" cy="190" rx="320" ry="220" fill="url(#glowB)"/>
  <ellipse cx="720" cy="610" rx="340" ry="130" fill="url(#glowC)"/>

  <text x="78" y="68" class="title">PersistBench Architecture</text>
  <text x="78" y="95" class="subtitle">Longitudinal replay pipeline for persistent cross-session adversarial evaluation</text>

  <g filter="url(#panelShadow)">
    <rect x="60" y="120" width="292" height="250" rx="22" fill="url(#inputPanel)" fill-opacity="0.90" stroke="#ffffff" stroke-opacity="0.94"/>
    <text x="84" y="150" class="sectionMeta">Stage 1</text>
    <text x="84" y="176" class="section">Input</text>
    <path d="M84 188H330" class="mutedLine"/>

    <g filter="url(#cardShadow)">
      <rect x="78" y="204" width="214" height="62" rx="16" fill="#ffffff" fill-opacity="0.78" stroke="#ffffff" stroke-opacity="0.96"/>
      <text x="94" y="227" class="nodeTitle">Scenario YAML</text>
      <text x="94" y="245" class="nodeMeta">attack fragments, trigger turns</text>
      <text x="94" y="257" class="smallMeta">suite metadata and timing plan</text>
    </g>

    <g filter="url(#cardShadow)">
      <rect x="78" y="278" width="214" height="62" rx="16" fill="#ffffff" fill-opacity="0.78" stroke="#ffffff" stroke-opacity="0.96"/>
      <text x="94" y="297" class="nodeTitle">Seed / RNG</text>
      <text x="94" y="315" class="nodeMeta">deterministic replay control</text>
      <text x="94" y="327" class="smallMeta">reproducible trace generation</text>
    </g>
  </g>

  <g filter="url(#panelShadow)">
    <rect x="60" y="398" width="264" height="170" rx="22" fill="url(#tracePanel)" fill-opacity="0.90" stroke="#ffffff" stroke-opacity="0.94"/>
    <text x="84" y="428" class="sectionMeta">Stage 2</text>
    <text x="84" y="454" class="section">Trace Generation</text>
    <path d="M84 466H302" class="mutedLine"/>

    <g filter="url(#cardShadow)">
      <rect x="78" y="480" width="178" height="62" rx="16" fill="#ffffff" fill-opacity="0.78" stroke="#ffffff" stroke-opacity="0.96"/>
      <text x="94" y="504" class="nodeTitle">SLIS Generator</text>
      <text x="94" y="522" class="nodeMeta">session-level injection</text>
      <text x="94" y="534" class="smallMeta">sequencer</text>
    </g>
  </g>

  <g filter="url(#panelShadow)">
    <rect x="360" y="114" width="468" height="516" rx="24" fill="url(#replayPanel)" fill-opacity="0.91" stroke="#ffffff" stroke-opacity="0.96"/>
    <text x="384" y="146" class="sectionMeta">Stage 3</text>
    <text x="384" y="172" class="section">Replay Engine</text>
    <path d="M384 184H804" class="mutedLine"/>

    <g filter="url(#cardShadow)">
      <rect x="384" y="204" width="420" height="66" rx="18" fill="#ffffff" fill-opacity="0.80" stroke="#ffffff" stroke-opacity="0.97"/>
      <text x="392" y="229" class="nodeTitle">Defense Middleware</text>
      <text x="392" y="247" class="nodeMeta">PLS, MW, TOH, DEV, PS, CD</text>
      <text x="392" y="259" class="smallMeta">pre-turn, post-turn, and memory-write interception</text>
      <rect x="720" y="216" width="66" height="20" rx="10" fill="#ffffff" fill-opacity="0.7" stroke="#dbeafe"/>
      <text x="734" y="230" class="chip">control</text>
    </g>

    <g filter="url(#focusShadow)">
      <rect x="432" y="292" width="322" height="126" rx="22" fill="#ffffff" fill-opacity="0.84" stroke="#ffffff" stroke-opacity="0.99"/>
      <text x="456" y="331" class="nodeTitle">ReplayEngine</text>
      <text x="456" y="352" class="nodeMeta">multi-session orchestration across attack,</text>
      <text x="456" y="366" class="nodeMeta">probe, and trigger phases</text>
      <text x="456" y="381" class="smallMeta">deterministic traces, defense hooks,</text>
      <text x="456" y="394" class="smallMeta">session lifecycle control</text>
      <rect x="544" y="401" width="136" height="24" rx="12" fill="#eef5ff" stroke="#aacaf6"/>
      <text x="572" y="417" class="chip">orchestrator</text>
    </g>

    <g filter="url(#cardShadow)">
      <rect x="392" y="446" width="140" height="90" rx="18" fill="#ffffff" fill-opacity="0.78" stroke="#ffffff" stroke-opacity="0.96"/>
      <text x="410" y="487" class="nodeTitle">Agent Backend</text>
      <text x="410" y="507" class="nodeMeta">Echo, Claude, OpenAI</text>
      <text x="410" y="521" class="smallMeta">oracle and live-model</text>
      <text x="410" y="533" class="smallMeta">execution</text>
    </g>

    <g filter="url(#cardShadow)">
      <rect x="572" y="446" width="154" height="90" rx="18" fill="#ffffff" fill-opacity="0.78" stroke="#ffffff" stroke-opacity="0.96"/>
      <text x="604" y="487" class="nodeTitle">Memory Store</text>
      <text x="604" y="507" class="nodeMeta">DuckDB, Qdrant</text>
      <text x="604" y="521" class="smallMeta">persistent state and</text>
      <text x="604" y="533" class="smallMeta">retrieval loop</text>
    </g>
  </g>

  <g filter="url(#panelShadow)">
    <rect x="882" y="120" width="252" height="246" rx="22" fill="url(#evalPanel)" fill-opacity="0.89" stroke="#ffffff" stroke-opacity="0.94"/>
    <text x="906" y="150" class="sectionMeta">Stage 4</text>
    <text x="906" y="176" class="section">Evaluation</text>
    <path d="M906 188H1110" class="mutedLine"/>

    <g filter="url(#cardShadow)">
      <rect x="900" y="206" width="216" height="66" rx="18" fill="#ffffff" fill-opacity="0.80" stroke="#ffffff" stroke-opacity="0.97"/>
      <text x="920" y="229" class="nodeTitle">Metrics Computation</text>
      <text x="920" y="247" class="nodeMeta">APS, RLS, UPS, BDI, FVS, CRA</text>
      <rect x="920" y="252" width="82" height="18" rx="9" fill="#f0fdf4" stroke="#bbf7d0"/>
      <text x="939" y="265" class="chip">analysis</text>
    </g>

    <g filter="url(#accentShadow)">
      <rect x="900" y="288" width="216" height="64" rx="18" fill="#fafffc" fill-opacity="0.86" stroke="#8fddb9" stroke-opacity="0.82"/>
      <text x="920" y="307" class="nodeTitle">Provenance DAG</text>
      <text x="920" y="325" class="nodeMeta">ancestor and descendant</text>
      <text x="920" y="339" class="nodeMeta">lineage tracing</text>
    </g>
  </g>

  <g filter="url(#panelShadow)">
    <rect x="882" y="376" width="252" height="198" rx="22" fill="url(#evalPanel)" fill-opacity="0.86" stroke="#ffffff" stroke-opacity="0.94"/>
    <text x="906" y="406" class="sectionMeta">Stage 4b</text>
    <text x="906" y="432" class="section">Forgetting Validation</text>
    <path d="M906 444H1110" class="mutedLine"/>

    <g filter="url(#accentShadow)">
      <rect x="900" y="462" width="216" height="76" rx="20" fill="#ffffff" fill-opacity="0.85" stroke="#92dec0" stroke-opacity="0.78"/>
      <text x="920" y="490" class="nodeTitle">ForgettingValidator</text>
      <text x="920" y="509" class="nodeMeta">FVS-1 through FVS-15</text>
      <text x="920" y="523" class="smallMeta">deletion completeness and</text>
      <text x="920" y="536" class="smallMeta">resurfacing checks</text>
    </g>
  </g>

  <g filter="url(#panelShadow)">
    <rect x="1170" y="152" width="214" height="424" rx="22" fill="url(#outputPanel)" fill-opacity="0.89" stroke="#ffffff" stroke-opacity="0.94"/>
    <text x="1194" y="188" class="sectionMeta">Stage 5</text>
    <text x="1194" y="214" class="section">Output</text>
    <path d="M1194 226H1358" class="mutedLine"/>

    <g filter="url(#accentShadow)">
      <rect x="1192" y="244" width="170" height="122" rx="20" fill="url(#duckdbCard)" fill-opacity="0.92" stroke="#baa7ff" stroke-opacity="0.9"/>
      <ellipse cx="1277" cy="268" rx="36" ry="9" fill="#ede9fe" stroke="#c4b5fd"/>
      <path d="M1241 268V330C1241 335 1257 340 1277 340C1297 340 1313 335 1313 330V268" stroke="#a78bfa" fill="none"/>
      <text x="1252" y="294" class="nodeTitle">DuckDB</text>
      <text x="1248" y="314" class="nodeMeta">analytical store</text>
    </g>

    <g filter="url(#cardShadow)">
      <rect x="1192" y="392" width="170" height="72" rx="18" fill="#ffffff" fill-opacity="0.78" stroke="#ffffff" stroke-opacity="0.96"/>
      <text x="1210" y="420" class="nodeTitle">Artifact Export</text>
      <text x="1210" y="439" class="nodeMeta">JSON, CSV, HTML, MD</text>
    </g>

    <g filter="url(#cardShadow)">
      <rect x="1192" y="484" width="170" height="76" rx="18" fill="#ffffff" fill-opacity="0.78" stroke="#ffffff" stroke-opacity="0.96"/>
      <text x="1210" y="513" class="nodeTitle">Dashboard</text>
      <text x="1210" y="532" class="nodeMeta">7-page Streamlit</text>
      <text x="1210" y="545" class="smallMeta">observability</text>
    </g>
  </g>

  <path class="connectorSoft" d="M292 235C326 246 344 328 350 466"/>
  <path class="connectorSoft" d="M292 309C324 321 342 384 350 466"/>
  <path class="connector" d="M334 466C334 492 308 511 256 511"/>

  <path class="connector" d="M256 511C316 511 362 376 432 350"/>
  <path class="connectorSoft" d="M600 270C600 280 600 286 600 296"/>
  <path class="connectorSoft" d="M530 408C530 428 462 430 462 450"/>
  <path class="connectorSoft" d="M670 408C670 428 664 430 660 446"/>
  <path class="connectorSoft" d="M532 491C546 491 558 491 572 491"/>
  <path class="connectorSoft" d="M660 446C660 428 646 418 634 408"/>

  <path class="connector" d="M754 350C826 348 850 248 900 236"/>
  <path class="connectorSoft" d="M754 350C842 356 864 324 900 324"/>
  <path class="connectorSoft" d="M754 350C848 350 876 488 900 498"/>

  <path class="connector" d="M1116 240C1148 246 1166 264 1192 284"/>
  <path class="connectorSoft" d="M1116 320C1148 320 1168 306 1192 306"/>
  <path class="connectorSoft" d="M1116 500C1154 500 1172 338 1192 326"/>
  <path class="connectorSoft" d="M1277 366C1277 376 1277 382 1277 392"/>
  <path class="connectorSoft" d="M1277 464C1277 472 1277 476 1277 484"/>

  <circle cx="334" cy="466" r="3.5" fill="#64748b"/>
  <circle cx="754" cy="350" r="3.5" fill="#64748b"/>
  <circle cx="1116" cy="240" r="3.5" fill="#64748b"/>

  <text x="78" y="666" style="font: 500 12px 'Inter', 'IBM Plex Sans', 'Segoe UI', sans-serif; fill: #55667d;">Replay orchestration stays central while provenance analysis, forgetting validation, and durable storage remain visually distinct for security benchmarking.</text>
</svg>
