<svg xmlns="http://www.w3.org/2000/svg" width="1000" height="400" viewBox="0 0 1000 400">
<defs>
  <!-- compact arrowhead matching Figure 1 style -->
  <marker id="ah" markerWidth="7" markerHeight="5"
          refX="7" refY="2.5" orient="auto">
    <polygon points="0 0, 7 2.5, 0 5" fill="#94A3B8"/>
  </marker>
  <!-- reversed for bidirectional if needed -->
  <marker id="ah_rev" markerWidth="7" markerHeight="5"
          refX="0" refY="2.5" orient="auto-start-reverse">
    <polygon points="0 0, 7 2.5, 0 5" fill="#94A3B8"/>
  </marker>
</defs>
<rect width="1000" height="400" fill="#FFFFFF"/>
<text x="500" y="28" fill="#1E293B" font-size="13" font-weight="700" text-anchor="middle" font-family="Inter, 'IBM Plex Sans', system-ui, sans-serif"  >Adversarial Fragment Lifecycle</text>
<text x="500" y="46" fill="#475569" font-size="10" font-weight="400" text-anchor="middle" font-family="Inter, 'IBM Plex Sans', system-ui, sans-serif" font-style="italic" >persistent state propagates, reactivates, and survives incomplete deletion</text>
<rect x="71" y="97" width="138" height="62" rx="9" ry="9" fill="#FFF1F2" stroke="#FCA5A5" stroke-width="1.5"  />
<rect x="71" y="97" width="138" height="4" rx="9" ry="9" fill="#FCA5A5"/>
<rect x="71" y="99" width="138" height="2" fill="#FCA5A5"/>
<line x1="83" y1="115" x2="197" y2="115" stroke="#FCA5A5" stroke-width="0.75" />
<text x="140" y="135" fill="#991B1B" font-size="11" font-weight="600" text-anchor="middle" font-family="Inter, 'IBM Plex Sans', system-ui, sans-serif" >Create</text>
<text x="140" y="155" fill="#94A3B8" font-size="9" text-anchor="middle" font-family="'IBM Plex Mono', 'Fira Code', Consolas, monospace" font-style="italic">adversarial write</text>
<rect x="251" y="97" width="138" height="62" rx="9" ry="9" fill="#EFF6FF" stroke="#93C5FD" stroke-width="1.5"  />
<rect x="251" y="97" width="138" height="4" rx="9" ry="9" fill="#93C5FD"/>
<rect x="251" y="99" width="138" height="2" fill="#93C5FD"/>
<line x1="263" y1="115" x2="377" y2="115" stroke="#93C5FD" stroke-width="0.75" />
<text x="320" y="135" fill="#1E40AF" font-size="11" font-weight="600" text-anchor="middle" font-family="Inter, 'IBM Plex Sans', system-ui, sans-serif" >Retrieve</text>
<text x="320" y="155" fill="#94A3B8" font-size="9" text-anchor="middle" font-family="'IBM Plex Mono', 'Fira Code', Consolas, monospace" font-style="italic">cross-session read</text>
<rect x="431" y="97" width="138" height="62" rx="9" ry="9" fill="#F5F3FF" stroke="#C4B5FD" stroke-width="1.5"  />
<rect x="431" y="97" width="138" height="4" rx="9" ry="9" fill="#C4B5FD"/>
<rect x="431" y="99" width="138" height="2" fill="#C4B5FD"/>
<line x1="443" y1="115" x2="557" y2="115" stroke="#C4B5FD" stroke-width="0.75" />
<text x="500" y="135" fill="#5B21B6" font-size="11" font-weight="600" text-anchor="middle" font-family="Inter, 'IBM Plex Sans', system-ui, sans-serif" >Consolidate</text>
<text x="500" y="155" fill="#94A3B8" font-size="9" text-anchor="middle" font-family="'IBM Plex Mono', 'Fira Code', Consolas, monospace" font-style="italic">summary derived</text>
<rect x="611" y="97" width="138" height="62" rx="9" ry="9" fill="#FFF1F2" stroke="#FCA5A5" stroke-width="1.5"  />
<rect x="611" y="97" width="138" height="4" rx="9" ry="9" fill="#FCA5A5"/>
<rect x="611" y="99" width="138" height="2" fill="#FCA5A5"/>
<line x1="623" y1="115" x2="737" y2="115" stroke="#FCA5A5" stroke-width="0.75" />
<text x="680" y="135" fill="#991B1B" font-size="11" font-weight="600" text-anchor="middle" font-family="Inter, 'IBM Plex Sans', system-ui, sans-serif" >Trigger</text>
<text x="680" y="155" fill="#94A3B8" font-size="9" text-anchor="middle" font-family="'IBM Plex Mono', 'Fira Code', Consolas, monospace" font-style="italic">reactivation</text>
<rect x="791" y="97" width="138" height="62" rx="9" ry="9" fill="#F8FAFC" stroke="#CBD5E1" stroke-width="1.5" stroke-dasharray="6 3" />
<rect x="791" y="97" width="138" height="4" rx="9" ry="9" fill="#CBD5E1"/>
<rect x="791" y="99" width="138" height="2" fill="#CBD5E1"/>
<line x1="803" y1="115" x2="917" y2="115" stroke="#CBD5E1" stroke-width="0.75" />
<text x="860" y="135" fill="#64748B" font-size="11" font-weight="600" text-anchor="middle" font-family="Inter, 'IBM Plex Sans', system-ui, sans-serif" text-decoration="line-through">Delete</text>
<text x="860" y="155" fill="#94A3B8" font-size="9" text-anchor="middle" font-family="'IBM Plex Mono', 'Fira Code', Consolas, monospace" font-style="italic">deletion attempt</text>
<path d="M211,128 L249,128" stroke="#94A3B8" stroke-width="1.5" fill="none"  marker-end="url(#ah)"/>
<path d="M391,128 L429,128" stroke="#94A3B8" stroke-width="1.5" fill="none"  marker-end="url(#ah)"/>
<path d="M571,128 L609,128" stroke="#94A3B8" stroke-width="1.5" fill="none"  marker-end="url(#ah)"/>
<path d="M751,128 L789,128" stroke="#94A3B8" stroke-width="1.5" fill="none"  marker-end="url(#ah)"/>
<line x1="79" y1="173" x2="921" y2="173" stroke="#E2E8F0" stroke-width="1" />
<line x1="140" y1="168" x2="140" y2="178" stroke="#94A3B8" stroke-width="1" />
<text x="140" y="187" fill="#94A3B8" font-size="9" text-anchor="middle" font-family="Inter, 'IBM Plex Sans', system-ui, sans-serif">S₁</text>
<line x1="320" y1="168" x2="320" y2="178" stroke="#94A3B8" stroke-width="1" />
<text x="320" y="187" fill="#94A3B8" font-size="9" text-anchor="middle" font-family="Inter, 'IBM Plex Sans', system-ui, sans-serif">S₂</text>
<line x1="500" y1="168" x2="500" y2="178" stroke="#94A3B8" stroke-width="1" />
<text x="500" y="187" fill="#94A3B8" font-size="9" text-anchor="middle" font-family="Inter, 'IBM Plex Sans', system-ui, sans-serif">S₃–₄</text>
<line x1="680" y1="168" x2="680" y2="178" stroke="#94A3B8" stroke-width="1" />
<text x="680" y="187" fill="#94A3B8" font-size="9" text-anchor="middle" font-family="Inter, 'IBM Plex Sans', system-ui, sans-serif">S₅</text>
<line x1="860" y1="168" x2="860" y2="178" stroke="#94A3B8" stroke-width="1" />
<text x="860" y="187" fill="#94A3B8" font-size="9" text-anchor="middle" font-family="Inter, 'IBM Plex Sans', system-ui, sans-serif">S₆</text>
<text x="230" y="199" fill="#B0BEC5" font-size="8.5" text-anchor="middle" font-family="Inter, 'IBM Plex Sans', system-ui, sans-serif">Attack Phase</text>
<text x="500" y="199" fill="#B0BEC5" font-size="8.5" text-anchor="middle" font-family="Inter, 'IBM Plex Sans', system-ui, sans-serif">Dormancy</text>
<text x="680" y="199" fill="#B0BEC5" font-size="8.5" text-anchor="middle" font-family="Inter, 'IBM Plex Sans', system-ui, sans-serif">Trigger Session</text>
<text x="860" y="199" fill="#B0BEC5" font-size="8.5" text-anchor="middle" font-family="Inter, 'IBM Plex Sans', system-ui, sans-serif">Deletion</text>
<rect x="424" y="262" width="152" height="62" rx="9" ry="9" fill="#F5F3FF" stroke="#C4B5FD" stroke-width="1.5" stroke-dasharray="6 3" />
<rect x="424" y="262" width="152" height="4" rx="9" ry="9" fill="#C4B5FD"/>
<rect x="424" y="264" width="152" height="2" fill="#C4B5FD"/>
<line x1="436" y1="280" x2="564" y2="280" stroke="#C4B5FD" stroke-width="0.75" />
<text x="500" y="293" fill="#5B21B6" font-size="11" font-weight="600" text-anchor="middle" font-family="Inter, 'IBM Plex Sans', system-ui, sans-serif" >Residual</text>
<text x="500" y="308" fill="#5B21B6" font-size="11" font-weight="600" text-anchor="middle" font-family="Inter, 'IBM Plex Sans', system-ui, sans-serif" >Descendant</text>
<text x="500" y="328" fill="#94A3B8" font-size="9" text-anchor="middle" font-family="'IBM Plex Mono', 'Fira Code', Consolas, monospace" font-style="italic">derived state persists</text>
<path d="M500,162 L500,259" stroke="#94A3B8" stroke-width="1.5" fill="none" marker-end="url(#ah)"/>
<text x="492" y="214" fill="#94A3B8" font-size="9.5" text-anchor="end" font-family="Inter, 'IBM Plex Sans', system-ui, sans-serif" font-style="italic">derives</text>
<path d="M580,293 L972,293" stroke="#C4B5FD" stroke-width="1.5" fill="none" stroke-dasharray="6 4" marker-end="url(#ah)"/>
<text x="776" y="283" fill="#5B21B6" font-size="9.5" text-anchor="middle" font-family="Inter, 'IBM Plex Sans', system-ui, sans-serif" font-style="italic" font-weight="500">survives deletion</text>
<line x1="860" y1="203" x2="860" y2="293" stroke="#FCA5A5" stroke-width="1" stroke-dasharray="3 3"/>
<rect x="60" y="371" width="10" height="10" rx="2" fill="#FCA5A5" stroke="#991B1B" stroke-width="1.2"/>
<text x="75" y="380" fill="#475569" font-size="9.5" text-anchor="start" font-family="Inter, 'IBM Plex Sans', system-ui, sans-serif">Adversarial lineage</text>
<rect x="280" y="371" width="10" height="10" rx="2" fill="#93C5FD" stroke="#1E40AF" stroke-width="1.2"/>
<text x="295" y="380" fill="#475569" font-size="9.5" text-anchor="start" font-family="Inter, 'IBM Plex Sans', system-ui, sans-serif">Benign retrieval</text>
<rect x="500" y="371" width="10" height="10" rx="2" fill="#C4B5FD" stroke="#5B21B6" stroke-width="1.2"/>
<text x="515" y="380" fill="#475569" font-size="9.5" text-anchor="start" font-family="Inter, 'IBM Plex Sans', system-ui, sans-serif">Derived / consolidated</text>
<rect x="720" y="371" width="10" height="10" rx="2" fill="#CBD5E1" stroke="#64748B" stroke-width="1.2"/>
<text x="735" y="380" fill="#475569" font-size="9.5" text-anchor="start" font-family="Inter, 'IBM Plex Sans', system-ui, sans-serif">Deleted (incomplete)</text>
<line x1="40" y1="58" x2="960" y2="58" stroke="#E2E8F0" stroke-width="1" />
<line x1="40" y1="352" x2="960" y2="352" stroke="#E2E8F0" stroke-width="1" />
</svg>